HIERARCHY
ROOT simHips
{
  OFFSET 102.609 99.8512 -5.77822
  CHANNELS 6 Xposition Yposition Zposition Zrotation Xrotation Yrotation
  JOINT simSpine
  {
    OFFSET -0.000355721 21.3001 -0.016921
    CHANNELS 3 Zrotation Xrotation Yrotation
    JOINT simLeftArm
    {
      OFFSET 13.5181 21.3012 0
      CHANNELS 3 Zrotation Xrotation Yrotation
      JOINT simLeftForeArm
      {
        OFFSET 24.5783 0 0
        CHANNELS 3 Zrotation Xrotation Yrotation
        JOINT simLeftHand
        {
          OFFSET 24.5783 0 0
          CHANNELS 3 Zrotation Xrotation Yrotation
          End Site
          {
            OFFSET 7.32568 1.52588e-05 0.0169305
          }
        }
      }
    }
    JOINT simHead
    {
      OFFSET 0 27.4458 -0.00489235
      CHANNELS 3 Zrotation Xrotation Yrotation
      End Site
      {
        OFFSET 0 0 0
      }
    }
    JOINT simRightArm
    {
      OFFSET -13.5174 21.3012 0
      CHANNELS 3 Zrotation Xrotation Yrotation
      JOINT simRightForeArm
      {
        OFFSET -24.5783 0 0
        CHANNELS 3 Zrotation Xrotation Yrotation
        JOINT simRightHand
        {
          OFFSET -24.5783 0 0
          CHANNELS 3 Zrotation Xrotation Yrotation
          End Site
          {
            OFFSET -7.32568 1.52588e-05 0.0169305
          }
        }
      }
    }
  }
  JOINT simRightUpLeg
  {
    OFFSET -8.44614 -9.41038 0.835684
    CHANNELS 3 Zrotation Xrotation Yrotation
    JOINT simRightLeg
    {
      OFFSET 0 -40.9639 0
      CHANNELS 3 Zrotation Xrotation Yrotation
      JOINT simRightFoot
      {
        OFFSET 0 -40.9639 0
        CHANNELS 3 Zrotation Xrotation Yrotation
        End Site
        {
          OFFSET 0.50614 -9.67405 14.6709
        }
      }
    }
  }
  JOINT simLeftUpLeg
  {
    OFFSET 8.44614 -9.41038 0.835684
    CHANNELS 3 Zrotation Xrotation Yrotation
    JOINT simLeftLeg
    {
      OFFSET 0 -40.9639 0
      CHANNELS 3 Zrotation Xrotation Yrotation
      JOINT simLeftFoot
      {
        OFFSET 0 -40.9639 0
        CHANNELS 3 Zrotation Xrotation Yrotation
        End Site
        {
          OFFSET -0.50614 -9.67405 14.6709
        }
      }
    }
  }
}
MOTION
Frames:	25
Frame Time:	0.0333333
102.609 99.8512 -5.77822 0 0 -0 1.70755e-06 0 -0 -6.83019e-06 -1.70755e-06 -1.53679e-05 5.33609e-06 1.70755e-06 2.50806e-05 -4.26887e-07 7.22659e-14 -9.71271e-06 -1.70755e-06 0 -0 6.83019e-06 -8.53773e-07 5.12264e-06 -8.5354e-06 0.00906091 -1.4782e-05 -5.75742e-13 6.83019e-06 8.93898e-06 -0.0837151 0.659903 0.000508246 -5.49241e-07 0.064142 -0.00299956 0.0837214 -0.724045 0.000538758 -0.943389 -0.195109 0.00488907 -4.00089e-05 1.5671 0.00400382 0.943623 -1.37847 0.0139333 
102.464 99.8516 -5.75727 0.0110042 0.0145342 0.101949 -0.00266334 -0.0383937 -0.00554879 -0.0708046 0.0148993 -0.00428101 0.0588677 -0.0342957 -0.144564 0.00744751 -0.0857429 0.15944 0.0951723 -0.212677 -0.079524 0.0781614 -0.00730912 -0.213971 -0.0245307 0.00906091 0.0579383 -0.0139321 0.0909967 -0.0449142 0.00658243 0.679509 -0.0083035 -0.00241578 0.0395812 -0.00299955 0.0288435 -0.71071 -0.131487 -0.84658 -0.212215 -0.102863 -0.00825746 1.5671 0.00400382 0.798657 -1.38783 0.0147108 
102.338 99.8521 -5.73789 0.0211269 0.0580673 0.196613 -0.0161289 -0.0750595 -0.0248377 -0.0787125 -0.152484 -0.0317755 0.0283637 -0.0402125 -0.0623029 0.161558 0.0776919 -0.0367763 0.183659 -0.437795 -0.121491 0.127217 0.0182765 -0.411399 -0.0189157 0.00906091 0.044476 -0.112993 0.153606 0.0171553 0.0848258 0.6325 0.0215905 -0.0166399 0.0791259 -0.00299956 -0.147343 -0.775452 -0.198686 -0.773258 -0.265302 -0.180057 -0.011398 1.5671 0.00400382 0.709849 -1.37278 -0.00739886 
102.224 99.8521 -5.70499 0.0308786 0.0379455 0.286088 -0.0430092 -0.0786914 -0.0935149 -0.0462976 -0.101122 0.0397219 0.052286 -0.0356293 -0.126675 0.0563196 -0.00945032 0.114279 0.267179 -0.558418 -0.0924352 0.230954 -0.131888 -0.529636 -0.0372173 0.0090609 0.0881065 -0.118979 -0.0379031 -0.120378 0.167396 0.676808 -0.032236 -0.0105087 0.0928153 -0.00299956 -0.106431 -0.747623 -0.2625 -0.707903 -0.23061 -0.413173 0.00309494 1.57696 0.00400384 0.654538 -1.38662 0.15995 
102.156 99.8523 -5.6917 0.0272889 0.048454 0.25324 -0.0352545 -0.0750185 -0.0515798 -0.014504 -0.195718 0.0819539 0.00742952 -0.0442419 -0.00565245 0.11921 0.124683 -0.0451831 0.264132 -0.676356 -0.0587294 0.257104 -0.18257 -0.625557 -0.0226385 0.00906091 0.054064 -0.148824 -0.117326 -0.149262 0.218461 1.13761 0.0578134 -0.021425 -0.422029 -0.00299964 -0.187276 -0.701484 -0.305141 -0.651364 -0.224989 -0.255904 -0.00290125 1.58439 0.00400385 0.638838 -1.40439 0.0241098 
102.104 99.8492 -5.67725 0.0239575 0.00431293 0.210699 -0.0462188 -0.0670182 -0.0346947 0.0602296 -0.184669 0.163674 -0.00318058 0.0311088 -0.00139424 0.061968 0.144864 0.0335682 0.286686 -0.696626 -0.0133122 0.29594 -0.235372 -0.662201 -0.00687634 0.00906091 0.0178029 -0.212134 0.0448908 -0.166414 0.248082 0.650895 0.118185 -0.0193907 0.122458 -0.00299956 -0.286645 -0.749487 -0.309175 -0.610567 -0.176935 -0.281328 -0.0145479 1.63992 0.00400396 0.612455 -1.4621 0.0967842 
102.063 99.8485 -5.66354 0.00644345 -0.0154315 0.145901 -0.0516294 -0.0410046 -0.0426738 0.172726 -0.125844 0.316808 0.00287863 -0.0448608 -0.000508142 0.10336 0.0832033 0.0432336 0.343712 -0.70946 -0.00306223 0.324308 -0.153703 -0.673792 -0.0126546 0.00906091 0.0312659 -0.267383 -0.160122 -0.200377 0.310879 0.844556 0.163044 -0.031672 -0.0538155 -0.00299956 -0.208267 -0.679254 -0.350018 -0.548712 -0.0728362 -0.234466 -0.0332252 1.57637 0.00400383 0.587075 -1.4838 0.103142 
102.033 99.8479 -5.65479 -0.00678503 -0.0309578 0.0850016 -0.0724277 -0.0264491 -0.0538035 0.287198 -0.105317 0.415722 0.0112288 -0.0435359 -0.0161471 0.225533 0.169131 0.0539261 0.401445 -0.605824 -0.00360786 0.358662 -0.20647 -0.6587 -0.0159161 0.00906091 0.0390661 -0.313509 -0.195711 -0.179949 0.345621 0.838 0.210167 -0.0346788 0.00398684 -0.00299955 -0.272943 -0.735206 -0.330255 -0.521906 -0.113286 -0.143259 -0.0387103 1.64663 0.00400397 0.618046 -1.48909 0.0862228 
102.034 99.8468 -5.64465 -0.0166348 -0.0853907 0.0208265 -0.0747438 0.0197214 -0.0463876 0.361866 -0.0655767 0.458253 0.00982347 -0.0431753 -0.0122755 0.218033 0.0935407 0.0421793 0.397505 -0.436671 -0.0420942 0.377691 -0.181593 -0.669161 -0.0200875 0.00906091 0.0491375 -0.282369 -0.266774 -0.162596 0.356272 0.954334 0.243239 -0.0209982 -0.0894508 -0.00299956 -0.199471 -0.648148 -0.337804 -0.517953 0.0198996 -0.116828 -0.035724 1.59457 0.00400387 0.6555 -1.5064 0.11716 
102.024 99.8464 -5.6334 -0.0192926 -0.111915 0.0150383 -0.103607 0.023493 -0.0638829 0.435287 0.0399086 0.435827 0.0143376 -0.0429233 -0.0244904 0.160331 0.179725 0.0229399 0.451713 -0.290689 -0.100743 0.425335 -0.21285 -0.701181 -0.0193877 0.00906091 0.0482781 -0.316003 -0.236384 -0.230426 0.36864 0.916298 0.266749 -0.0338703 -0.0141923 -0.00299955 -0.259753 -0.66705 -0.335622 -0.507923 0.0512873 -0.174697 -0.0115817 1.60885 0.0040039 0.655046 -1.51978 0.165796 
102.033 99.8456 -5.62583 -0.0197629 -0.119013 0.01998 -0.129133 0.0272494 -0.0933189 0.447486 0.044363 0.381834 0.0195722 -0.042033 -0.03844 0.176474 0.28451 -0.0207373 0.499562 -0.148308 -0.103214 0.460919 -0.194654 -0.754533 -0.0238531 0.00906091 0.0625143 -0.342498 -0.274297 -0.208804 0.372695 0.911118 0.218295 -0.0385833 0.00635989 -0.00299955 -0.323689 -0.699481 -0.276218 -0.507336 -0.0451255 -0.159874 -0.0381846 1.70081 0.00397729 0.691542 -1.50406 0.146042 
102.046 99.8451 -5.61571 -0.0304849 -0.137199 0.01562 -0.147369 0.0655363 -0.154708 0.421502 0.124921 0.378042 0.05436 -0.0410272 -0.132194 0.082481 0.124677 0.130135 0.540802 -0.00964314 -0.0333875 0.504952 -0.224531 -0.751228 -0.0294736 0.00906091 0.0718047 -0.317643 -0.411631 -0.144386 0.370043 0.871038 0.233411 -0.0250051 0.0694367 -0.00299956 -0.181393 -0.648757 -0.327622 -0.508549 0.088446 -0.14771 -0.0303806 1.54754 0.0138846 0.685754 -1.46898 0.132387 
102.064 99.8447 -5.60118 -0.0321045 -0.130945 0.0470097 -0.171905 0.0144123 -0.217799 0.383793 0.158346 0.297239 0.0389769 -0.0399681 -0.0911553 0.0572533 0.214065 0.104829 0.526372 0.141799 -0.0466088 0.55596 -0.213951 -0.735816 -0.0333986 0.00906091 0.0805869 -0.225147 -0.553657 -0.195222 0.358883 1.02092 0.221627 -0.0313944 -0.0740678 -0.00299956 -0.22941 -0.678159 -0.34116 -0.517938 0.0872205 -0.135964 -0.0447953 1.5859 0.0156805 0.718043 -1.51089 0.0917546 
102.071 99.8438 -5.57981 -0.05779 -0.175315 0.097341 -0.198095 0.0515797 -0.330823 0.351314 0.259762 0.299429 0.0553581 -0.0388712 -0.135389 0.034973 0.20451 0.162623 0.552332 0.201238 -0.0327502 0.612452 -0.203571 -0.726514 -0.0489355 0.0090609 0.11655 -0.198704 -0.469908 -0.160001 0.390267 1.04071 0.170747 -0.0431954 0.00043115 -0.00299955 -0.234623 -0.734998 -0.345026 -0.50603 0.184325 -0.215181 -0.0178633 1.51678 0.0271634 0.716222 -1.49095 0.0996107 
102.127 99.8438 -5.57556 -0.0538544 -0.143382 -0.00141293 -0.192802 0.0358774 -0.243226 0.250527 0.215484 0.251878 0.0756862 -0.0377523 -0.190358 0.0677824 0.148298 0.259368 0.449506 0.17239 -0.0680005 0.615608 -0.260487 -0.750257 -0.0592144 0.00906089 0.140843 -0.21195 -0.414643 -0.16719 0.339312 1.03816 0.248052 -0.0413283 -0.0649444 -0.00299956 -0.221778 -0.703225 -0.297243 -0.533139 0.0908266 -0.182523 -0.0363051 1.62778 0.030801 0.741658 -1.54436 0.146144 
102.162 99.8434 -5.56337 -0.0545162 -0.136636 -0.0690225 -0.216037 0.0435799 -0.24129 0.207339 0.177458 0.253283 0.0436929 -0.0366275 -0.10357 0.158539 0.186917 0.0632504 0.429453 0.150643 -0.0466625 0.640805 -0.281147 -0.701629 -0.057152 0.00906089 0.135903 -0.184808 -0.439318 -0.129476 0.322716 0.847055 0.346596 -0.0282138 0.146993 -0.00299956 -0.151916 -0.701955 -0.34915 -0.543605 0.125743 -0.210752 -0.0428921 1.5905 0.037193 0.75669 -1.54882 0.22396 
102.203 99.8429 -5.55964 -0.0569921 -0.108936 -0.155474 -0.252345 0.0522306 -0.225414 0.151048 0.0852673 0.291877 0.0703501 -0.035512 -0.175015 0.0923496 0.200036 0.316355 0.431533 0.130498 -0.0232522 0.663149 -0.290819 -0.622909 -0.0445901 0.0090609 0.106158 -0.206136 -0.534197 -0.140252 0.281419 0.963534 0.402917 -0.020528 -0.0165562 -0.00299955 -0.126917 -0.692535 -0.302171 -0.577123 0.162975 -0.16894 -0.0568393 1.50842 0.0332453 0.838714 -1.52378 0.275178 
102.252 99.8423 -5.54751 -0.0602487 -0.0991245 -0.238197 -0.263212 0.0403205 -0.196913 0.118208 0.151843 0.349692 0.0508231 -0.0344219 -0.122644 0.216078 0.23825 0.108533 0.356415 0.0780373 -0.0457454 0.68967 -0.281637 -0.569304 -0.0568893 0.00906089 0.134485 -0.164292 -0.631636 -0.156256 0.249562 1.04077 0.460764 -0.0122619 -0.0560042 -0.00299956 -0.0980525 -0.743055 -0.272413 -0.627162 0.0857277 -0.163935 -0.0137364 1.56776 0.0444601 0.856329 -1.51377 0.336165 
102.288 99.841 -5.53598 -0.0674077 -0.0808871 -0.295609 -0.302032 0.0798496 -0.189178 0.0924077 0.152782 0.416505 0.0595076 -0.0333728 -0.145721 0.29085 0.0791068 0.146993 0.332148 -0.0594559 -0.122566 0.73487 -0.274981 -0.5978 -0.0748438 0.00906087 0.176489 -0.25697 -0.649446 -0.165913 0.230852 0.950435 0.523154 -0.0102432 0.0101523 -0.00299955 -0.090546 -0.733091 -0.276024 -0.645098 0.0687767 -0.165864 -0.0295415 1.61317 0.0513951 0.8951 -1.55923 0.390255 
102.323 99.8397 -5.52302 -0.0880192 -0.0540652 -0.33272 -0.311449 0.073814 -0.179117 0.0569772 0.187859 0.456695 0.0680705 -0.0323804 -0.169711 0.26066 -0.0272532 0.193595 0.239319 -0.0531713 -0.221173 0.766862 -0.256996 -0.597929 -0.0845145 0.00906086 0.199198 -0.190452 -0.636847 -0.202152 0.226114 0.721546 0.551588 -0.0062898 0.183284 -0.00299957 -0.0263233 -0.696476 -0.265116 -0.639127 0.10094 -0.168551 -0.0313055 1.55905 0.0536872 0.946579 -1.55595 0.425465 
102.353 99.8379 -5.49685 -0.11589 -0.0272418 -0.338263 -0.317635 0.0612248 -0.212279 0.0270544 0.215097 0.505959 0.0860954 -0.0314604 -0.218446 0.188185 -0.0249702 0.340799 0.143966 -0.0558263 -0.277945 0.832373 -0.299307 -0.606627 -0.115179 0.00906081 0.270867 -0.140393 -0.691623 -0.157246 0.240086 1.22785 0.552866 -0.0362053 -0.359754 -0.00299961 -0.126316 -0.735786 -0.222009 -0.635837 0.0490186 -0.166577 -0.0301111 1.55234 0.0555177 0.997118 -1.51691 0.431996 
102.409 99.8362 -5.48548 -0.104617 -0.0276857 -0.387919 -0.316577 0.108749 -0.18008 -0.0677808 0.141555 0.525823 0.071382 -0.0305793 -0.178363 0.393457 -0.121459 0.203455 -0.0320097 -0.0664053 -0.336965 0.844267 -0.313945 -0.600044 -0.095129 0.00906085 0.223392 -0.227721 -0.835133 -0.074162 0.185316 0.870377 0.573003 -0.0156883 2.39852e-05 -0.00335396 0.0310355 -0.680178 -0.224428 -0.66473 0.0373257 -0.143231 -0.0681757 1.64979 0.0606038 1.0257 -1.60952 0.452887 
102.454 99.8345 -5.46754 -0.0867575 -0.00994624 -0.392804 -0.327167 0.0930983 -0.169765 -0.144422 0.118586 0.520858 0.0721766 -0.0297114 -0.180827 0.379931 -0.0373611 0.192664 -0.179729 -0.00937468 -0.396552 0.886933 -0.219992 -0.639705 -0.100036 0.00906084 0.234551 -0.309694 -0.851536 -0.174758 0.130949 0.822068 0.546656 -0.000668389 0.080066 -0.00413445 0.0320206 -0.729204 -0.193698 -0.723518 0.0540376 -0.0613823 -0.052921 1.5903 0.0635657 1.08375 -1.57768 0.376801 
102.492 99.8326 -5.44249 -0.0977639 -0.025417 -0.382315 -0.315685 0.126733 -0.177954 -0.225027 0.295011 0.564755 0.114444 -0.0288849 -0.295191 0.329655 -0.295537 0.306313 -0.271201 0.0413511 -0.420592 0.963651 -0.197651 -0.650116 -0.0961211 0.00906084 0.225265 -0.548257 -0.880304 -0.137868 0.118099 0.875541 0.516213 -0.00185033 0.0435384 -0.00488858 0.0803237 -0.713667 -0.170144 -0.74633 0.102205 -0.0457397 -0.0335246 1.54501 0.0654236 1.09117 -1.56699 0.345043 
102.536 99.8311 -5.41386 -0.092246 -0.0318204 -0.351983 -0.305578 0.12081 -0.183555 -0.302922 0.339357 0.532251 0.103848 -0.0281288 -0.266347 0.42164 -0.488162 0.165563 -0.324532 0.1273 -0.412036 1.01213 -0.141733 -0.700036 -0.104536 0.00906083 0.244735 -0.576404 -1.19444 -0.14106 0.0805408 0.899401 0.560977 0.00795083 0.0510992 -0.00570235 0.0801712 -0.721398 -0.256427 -0.789862 0.133805 -0.204493 -0.0324606 1.55275 0.0659116 1.15879 -1.58948 0.478144 
